<?xml version="1.0" standalone="no"?><!DOCTYPE svg PUBLIC "-//W3C//DTD SVG 1.1//EN" "http://www.w3.org/Graphics/SVG/1.1/DTD/svg11.dtd"><svg t="1782304595586" class="icon" viewBox="0 0 1068 1024" version="1.1" xmlns="http://www.w3.org/2000/svg" p-id="15882" xmlns:xlink="http://www.w3.org/1999/xlink" width="208.59375" height="200"><path d="M560.929391 0c-186.991304 0-352.612174 101.509565-438.093913 256.445217L0 133.565217v347.225044h347.269565l-149.593043-149.593044C267.130435 197.676522 400.695652 106.852174 560.929391 106.852174c219.046957 0 400.65113 181.648696 400.651131 400.695652s-181.648696 400.65113-400.695652 400.651131c-176.261565 0-320.512-112.194783-379.236174-267.130435H69.453913c58.768696 213.704348 256.445217 373.982609 491.475478 373.982608 283.158261 0 507.503304-229.732174 507.503305-507.547826C1068.432696 229.732174 838.700522 0 560.88487 0z m-80.13913 267.130435v272.428522l251.102609 149.593043 42.740869-69.453913-213.704348-128.222609v-224.389565h-80.13913z" fill="#1afa29" p-id="15883"></path></svg>